<mxfile host="app.diagrams.net" modified="2023-10-09T19:31:10.248Z" agent="Mozilla/5.0 (Windows NT 10.0; Win64; x64) AppleWebKit/537.36 (KHTML, like Gecko) Chrome/114.0.0.0 YaBrowser/23.7.4.971 Yowser/2.5 Safari/537.36" etag="oRCxIfUZVZgeSrIQg5QQ" version="22.0.0" type="device">
  <diagram name="Страница — 1" id="COU49K11Z6Fip-6LiriI">
    <mxGraphModel dx="1822" dy="1045" grid="1" gridSize="10" guides="1" tooltips="1" connect="1" arrows="1" fold="1" page="1" pageScale="1" pageWidth="827" pageHeight="1169" math="0" shadow="0">
      <root>
        <mxCell id="0" />
        <mxCell id="1" parent="0" />
        <mxCell id="QY5L_4iES8tH7SNltaf2-1" value="" style="rounded=0;orthogonalLoop=1;jettySize=auto;html=1;endArrow=none;endFill=0;" edge="1" parent="1" source="QY5L_4iES8tH7SNltaf2-5" target="QY5L_4iES8tH7SNltaf2-33">
          <mxGeometry relative="1" as="geometry" />
        </mxCell>
        <mxCell id="QY5L_4iES8tH7SNltaf2-2" value="" style="rounded=0;orthogonalLoop=1;jettySize=auto;html=1;endArrow=none;endFill=0;" edge="1" parent="1" source="QY5L_4iES8tH7SNltaf2-5" target="QY5L_4iES8tH7SNltaf2-34">
          <mxGeometry relative="1" as="geometry" />
        </mxCell>
        <mxCell id="QY5L_4iES8tH7SNltaf2-3" value="" style="rounded=0;orthogonalLoop=1;jettySize=auto;html=1;endArrow=none;endFill=0;" edge="1" parent="1" source="QY5L_4iES8tH7SNltaf2-5" target="QY5L_4iES8tH7SNltaf2-35">
          <mxGeometry relative="1" as="geometry" />
        </mxCell>
        <mxCell id="QY5L_4iES8tH7SNltaf2-4" value="" style="rounded=0;orthogonalLoop=1;jettySize=auto;html=1;endArrow=none;endFill=0;" edge="1" parent="1" source="QY5L_4iES8tH7SNltaf2-5" target="QY5L_4iES8tH7SNltaf2-36">
          <mxGeometry relative="1" as="geometry" />
        </mxCell>
        <mxCell id="QY5L_4iES8tH7SNltaf2-5" value="Администратор сайта" style="shape=umlActor;verticalLabelPosition=bottom;verticalAlign=top;html=1;outlineConnect=0;" vertex="1" parent="1">
          <mxGeometry x="450" y="215" width="30" height="60" as="geometry" />
        </mxCell>
        <mxCell id="QY5L_4iES8tH7SNltaf2-6" value="&lt;span&gt;Добавить контент&lt;/span&gt;" style="ellipse;whiteSpace=wrap;html=1;" vertex="1" parent="1">
          <mxGeometry x="294.5" y="270" width="90" height="60" as="geometry" />
        </mxCell>
        <mxCell id="QY5L_4iES8tH7SNltaf2-7" value="Добавить жанры" style="ellipse;whiteSpace=wrap;html=1;" vertex="1" parent="1">
          <mxGeometry x="143.5" y="180" width="90" height="60" as="geometry" />
        </mxCell>
        <mxCell id="QY5L_4iES8tH7SNltaf2-8" value="" style="endArrow=none;html=1;rounded=0;exitX=0.5;exitY=0.5;exitDx=0;exitDy=0;exitPerimeter=0;entryX=0.28;entryY=-0.001;entryDx=0;entryDy=0;entryPerimeter=0;" edge="1" parent="1" source="QY5L_4iES8tH7SNltaf2-5" target="QY5L_4iES8tH7SNltaf2-22">
          <mxGeometry width="50" height="50" relative="1" as="geometry">
            <mxPoint x="730.0000000000001" y="-70" as="sourcePoint" />
            <mxPoint x="530" y="352" as="targetPoint" />
          </mxGeometry>
        </mxCell>
        <mxCell id="QY5L_4iES8tH7SNltaf2-9" value="" style="endArrow=none;html=1;rounded=0;entryX=0.5;entryY=0.5;entryDx=0;entryDy=0;entryPerimeter=0;exitX=1;exitY=0;exitDx=0;exitDy=0;" edge="1" parent="1" source="QY5L_4iES8tH7SNltaf2-6" target="QY5L_4iES8tH7SNltaf2-5">
          <mxGeometry width="50" height="50" relative="1" as="geometry">
            <mxPoint x="410" y="365" as="sourcePoint" />
            <mxPoint x="460" y="315" as="targetPoint" />
          </mxGeometry>
        </mxCell>
        <mxCell id="QY5L_4iES8tH7SNltaf2-10" value="" style="html=1;verticalAlign=bottom;labelBackgroundColor=none;endArrow=block;endFill=1;dashed=1;rounded=0;exitX=1;exitY=1;exitDx=0;exitDy=0;entryX=0;entryY=0;entryDx=0;entryDy=0;" edge="1" parent="1" source="QY5L_4iES8tH7SNltaf2-7" target="QY5L_4iES8tH7SNltaf2-6">
          <mxGeometry width="160" relative="1" as="geometry">
            <mxPoint x="520" y="345" as="sourcePoint" />
            <mxPoint x="360" y="345" as="targetPoint" />
          </mxGeometry>
        </mxCell>
        <mxCell id="QY5L_4iES8tH7SNltaf2-11" value="" style="endArrow=none;html=1;rounded=0;fontSize=10;entryX=0.5;entryY=0.5;entryDx=0;entryDy=0;entryPerimeter=0;exitX=0;exitY=1;exitDx=0;exitDy=0;" edge="1" parent="1" source="QY5L_4iES8tH7SNltaf2-29" target="QY5L_4iES8tH7SNltaf2-5">
          <mxGeometry width="50" height="50" relative="1" as="geometry">
            <mxPoint x="600.1501700301965" y="301.4277434409187" as="sourcePoint" />
            <mxPoint x="472.32" y="195" as="targetPoint" />
          </mxGeometry>
        </mxCell>
        <mxCell id="QY5L_4iES8tH7SNltaf2-12" value="&quot;extend&quot;" style="text;html=1;strokeColor=none;fillColor=none;align=center;verticalAlign=middle;whiteSpace=wrap;rounded=0;fontSize=12;" vertex="1" parent="1">
          <mxGeometry x="233" y="240" width="51" height="15" as="geometry" />
        </mxCell>
        <mxCell id="QY5L_4iES8tH7SNltaf2-13" value="Добавить актерский состав&amp;nbsp;" style="ellipse;whiteSpace=wrap;html=1;" vertex="1" parent="1">
          <mxGeometry x="233" y="140" width="90" height="60" as="geometry" />
        </mxCell>
        <mxCell id="QY5L_4iES8tH7SNltaf2-14" value="" style="html=1;verticalAlign=bottom;labelBackgroundColor=none;endArrow=block;endFill=1;dashed=1;rounded=0;exitX=1;exitY=1;exitDx=0;exitDy=0;entryX=0.5;entryY=0;entryDx=0;entryDy=0;" edge="1" parent="1" source="QY5L_4iES8tH7SNltaf2-13" target="QY5L_4iES8tH7SNltaf2-6">
          <mxGeometry width="160" relative="1" as="geometry">
            <mxPoint x="271.3198051533932" y="241.21320343559523" as="sourcePoint" />
            <mxPoint x="317.6801948465959" y="288.7867965643975" as="targetPoint" />
          </mxGeometry>
        </mxCell>
        <mxCell id="QY5L_4iES8tH7SNltaf2-15" value="&quot;extend&quot;" style="text;html=1;strokeColor=none;fillColor=none;align=center;verticalAlign=middle;whiteSpace=wrap;rounded=0;fontSize=12;" vertex="1" parent="1">
          <mxGeometry x="333.5" y="235" width="51" height="15" as="geometry" />
        </mxCell>
        <mxCell id="QY5L_4iES8tH7SNltaf2-16" value="Добавить описание контента" style="ellipse;whiteSpace=wrap;html=1;" vertex="1" parent="1">
          <mxGeometry x="334.8" y="140" width="90" height="60" as="geometry" />
        </mxCell>
        <mxCell id="QY5L_4iES8tH7SNltaf2-17" value="Изменить описание фильма" style="ellipse;whiteSpace=wrap;html=1;" vertex="1" parent="1">
          <mxGeometry x="80" y="320" width="90" height="60" as="geometry" />
        </mxCell>
        <mxCell id="QY5L_4iES8tH7SNltaf2-18" value="" style="html=1;verticalAlign=bottom;labelBackgroundColor=none;endArrow=block;endFill=1;dashed=1;rounded=0;exitX=1.002;exitY=0.367;exitDx=0;exitDy=0;entryX=0.399;entryY=0.992;entryDx=0;entryDy=0;entryPerimeter=0;exitPerimeter=0;" edge="1" parent="1" source="QY5L_4iES8tH7SNltaf2-17" target="QY5L_4iES8tH7SNltaf2-6">
          <mxGeometry width="160" relative="1" as="geometry">
            <mxPoint x="271.3198051533932" y="438.78679656440477" as="sourcePoint" />
            <mxPoint x="317.6801948465959" y="331.2132034356025" as="targetPoint" />
          </mxGeometry>
        </mxCell>
        <mxCell id="QY5L_4iES8tH7SNltaf2-19" value="" style="html=1;verticalAlign=bottom;labelBackgroundColor=none;endArrow=block;endFill=1;dashed=1;rounded=0;exitX=0.339;exitY=0.971;exitDx=0;exitDy=0;entryX=0.647;entryY=0.017;entryDx=0;entryDy=0;entryPerimeter=0;exitPerimeter=0;" edge="1" parent="1" source="QY5L_4iES8tH7SNltaf2-16" target="QY5L_4iES8tH7SNltaf2-6">
          <mxGeometry width="160" relative="1" as="geometry">
            <mxPoint x="406.6299999999999" y="393.9599999999998" as="sourcePoint" />
            <mxPoint x="375.60000000000014" y="335.8600000000001" as="targetPoint" />
          </mxGeometry>
        </mxCell>
        <mxCell id="QY5L_4iES8tH7SNltaf2-20" value="&quot;extend&quot;" style="text;html=1;strokeColor=none;fillColor=none;align=center;verticalAlign=middle;whiteSpace=wrap;rounded=0;fontSize=12;" vertex="1" parent="1">
          <mxGeometry x="274.5" y="215" width="51" height="15" as="geometry" />
        </mxCell>
        <mxCell id="QY5L_4iES8tH7SNltaf2-21" value="&quot;extend&quot;" style="text;html=1;strokeColor=none;fillColor=none;align=center;verticalAlign=middle;whiteSpace=wrap;rounded=0;fontSize=12;" vertex="1" parent="1">
          <mxGeometry x="196.32" y="320" width="51" height="15" as="geometry" />
        </mxCell>
        <mxCell id="QY5L_4iES8tH7SNltaf2-22" value="Модерация рецензий пользователей" style="ellipse;whiteSpace=wrap;html=1;" vertex="1" parent="1">
          <mxGeometry x="524" y="282.5" width="90" height="60" as="geometry" />
        </mxCell>
        <mxCell id="QY5L_4iES8tH7SNltaf2-23" value="Удалять рецензию пользователя" style="ellipse;whiteSpace=wrap;html=1;" vertex="1" parent="1">
          <mxGeometry x="630" y="387.5" width="90" height="60" as="geometry" />
        </mxCell>
        <mxCell id="QY5L_4iES8tH7SNltaf2-24" value="" style="html=1;verticalAlign=bottom;labelBackgroundColor=none;endArrow=block;endFill=1;dashed=1;rounded=0;exitX=0.5;exitY=1;exitDx=0;exitDy=0;" edge="1" parent="1" source="QY5L_4iES8tH7SNltaf2-22" target="QY5L_4iES8tH7SNltaf2-23">
          <mxGeometry width="160" relative="1" as="geometry">
            <mxPoint x="570" y="380" as="sourcePoint" />
            <mxPoint x="858.14" y="480" as="targetPoint" />
          </mxGeometry>
        </mxCell>
        <mxCell id="QY5L_4iES8tH7SNltaf2-25" value="&lt;span&gt;Одобрять рецензию пользователя&lt;/span&gt;" style="ellipse;whiteSpace=wrap;html=1;" vertex="1" parent="1">
          <mxGeometry x="680" y="319.9999999999998" width="90" height="60" as="geometry" />
        </mxCell>
        <mxCell id="QY5L_4iES8tH7SNltaf2-26" value="" style="html=1;verticalAlign=bottom;labelBackgroundColor=none;endArrow=block;endFill=1;dashed=1;rounded=0;fontSize=12;entryX=0;entryY=0;entryDx=0;entryDy=0;" edge="1" parent="1" source="QY5L_4iES8tH7SNltaf2-22" target="QY5L_4iES8tH7SNltaf2-25">
          <mxGeometry width="160" relative="1" as="geometry">
            <mxPoint x="690.9598051533945" y="469.8732034355962" as="sourcePoint" />
            <mxPoint x="893.14" y="430" as="targetPoint" />
          </mxGeometry>
        </mxCell>
        <mxCell id="QY5L_4iES8tH7SNltaf2-27" value="&quot;include&quot;" style="text;html=1;strokeColor=none;fillColor=none;align=center;verticalAlign=middle;whiteSpace=wrap;rounded=0;fontSize=12;" vertex="1" parent="1">
          <mxGeometry x="620" y="320.0000000000002" width="51" height="15" as="geometry" />
        </mxCell>
        <mxCell id="QY5L_4iES8tH7SNltaf2-28" value="&quot;include&quot;" style="text;html=1;strokeColor=none;fillColor=none;align=center;verticalAlign=middle;whiteSpace=wrap;rounded=0;fontSize=12;" vertex="1" parent="1">
          <mxGeometry x="574" y="372.4999999999998" width="51" height="15" as="geometry" />
        </mxCell>
        <mxCell id="QY5L_4iES8tH7SNltaf2-29" value="Рассылать рекламные оповещения" style="ellipse;whiteSpace=wrap;html=1;" vertex="1" parent="1">
          <mxGeometry x="546.42" y="190" width="95" height="60" as="geometry" />
        </mxCell>
        <mxCell id="QY5L_4iES8tH7SNltaf2-30" value="Добавить режиссеров" style="ellipse;whiteSpace=wrap;html=1;" vertex="1" parent="1">
          <mxGeometry x="90" y="252.5" width="90" height="60" as="geometry" />
        </mxCell>
        <mxCell id="QY5L_4iES8tH7SNltaf2-31" value="" style="html=1;verticalAlign=bottom;labelBackgroundColor=none;endArrow=block;endFill=1;dashed=1;rounded=0;exitX=1;exitY=0.5;exitDx=0;exitDy=0;" edge="1" parent="1" source="QY5L_4iES8tH7SNltaf2-30" target="QY5L_4iES8tH7SNltaf2-6">
          <mxGeometry width="160" relative="1" as="geometry">
            <mxPoint x="153" y="295" as="sourcePoint" />
            <mxPoint x="304.5" y="310" as="targetPoint" />
          </mxGeometry>
        </mxCell>
        <mxCell id="QY5L_4iES8tH7SNltaf2-32" value="&quot;extend&quot;" style="text;html=1;strokeColor=none;fillColor=none;align=center;verticalAlign=middle;whiteSpace=wrap;rounded=0;fontSize=12;" vertex="1" parent="1">
          <mxGeometry x="193.8" y="280" width="51" height="15" as="geometry" />
        </mxCell>
        <mxCell id="QY5L_4iES8tH7SNltaf2-33" value="Оповещение о технических работать" style="ellipse;whiteSpace=wrap;html=1;" vertex="1" parent="1">
          <mxGeometry x="328.72999999999996" y="430" width="95" height="60" as="geometry" />
        </mxCell>
        <mxCell id="QY5L_4iES8tH7SNltaf2-34" value="Оповещение о сроке окончания подписки" style="ellipse;whiteSpace=wrap;html=1;" vertex="1" parent="1">
          <mxGeometry x="283.99999999999994" y="360" width="95" height="60" as="geometry" />
        </mxCell>
        <mxCell id="QY5L_4iES8tH7SNltaf2-35" value="Блокировать недобросовестных пользователей" style="ellipse;whiteSpace=wrap;html=1;" vertex="1" parent="1">
          <mxGeometry x="424.81999999999994" y="372.5" width="95" height="60" as="geometry" />
        </mxCell>
        <mxCell id="QY5L_4iES8tH7SNltaf2-36" value="Проверить жалобу и ответить на нее" style="ellipse;whiteSpace=wrap;html=1;" vertex="1" parent="1">
          <mxGeometry x="466.49999999999994" y="120" width="95" height="60" as="geometry" />
        </mxCell>
      </root>
    </mxGraphModel>
  </diagram>
</mxfile>
